# AST/ASF file generated using VICON BodyLanguage
# -----------------------------------------------
:version 1.10
:name VICON
:units
  mass 1.0
  length 0.45
  angle deg
:documentation
   .ast/.asf automatically generated from VICON data using
   VICON BodyBuilder and BodyLanguage model FoxedUp or BRILLIANT.MOD
:root
   order TX TY TZ RX RY RZ
   axis XYZ
   position 0 0 0  
   orientation 0 0 0 
:bonedata
  begin
     id 1 
     name lhipjoint
     direction 0.537252 -0.787203 0.302774 
     length 2.29576 
     axis 0 0 0  XYZ
  end
  begin
     id 2 
     name lfemur
     direction 0.34202 -0.939693 0  
     length 7.31114  
     axis 0 0 20  XYZ
    dof rx ry rz
    limits (-160.0 20.0)
           (-70.0 70.0)
           (-60.0 70.0)
  end
  begin
     id 3 
     name ltibia
     direction 0.34202 -0.939693 0   
     length 8.36008   
     axis 0 0 20   XYZ
    dof rx
    limits (-10.0 170.0)
  end
  begin
     id 4 
     name lfoot
     direction 0.0969116 -0.266263 0.959016   
     length 2.16704   
     axis -90 7.62852e-016 20   XYZ
    dof rx rz
    limits (-45.0 90.0)
           (-70.0 20.0)
  end
  begin
     id 5 
     name ltoes
     direction 1.53563e-011 -4.21779e-011 1   
     length 1.08338   
     axis -90 7.62852e-016 20   XYZ
    dof rx
    limits (-90.0 20.0)
  end
  begin
     id 6 
     name rhipjoint
     direction -0.588228 -0.754791 0.290308   
     length 2.39434  
     axis 0 0 0  XYZ 
  end
  begin
     id 7 
     name rfemur
     direction -0.34202 -0.939693 0   
     length 7.45207   
     axis 0 0 -20   XYZ
    dof rx ry rz
    limits (-160.0 20.0)
           (-70.0 70.0)
           (-70.0 60.0)
  end
  begin
     id 8 
     name rtibia
     direction -0.34202 -0.939693 0   
     length 8.03565   
     axis 0 0 -20   XYZ
    dof rx
    limits (-10.0 170.0)
 end
 begin
     id 9 
     name rfoot
     direction -0.107009 -0.294004 0.949795   
     length 2.11509  
     axis -90 -7.62852e-016 -20   XYZ
    dof rx rz
    limits (-45.0 90.0)
           (-20.0 70.0)
  end
  begin
     id 10 
     name rtoes
     direction -1.53533e-011 -4.22004e-011 1   
     length 1.05493   
     axis -90 -7.62852e-016 -20   XYZ
    dof rx
    limits (-90.0 20.0)
  end
  begin
     id 11 
     name lowerback
     direction -0.0115208 0.997969 -0.0626515   
     length 2.03153   
     axis 0 0 0   XYZ
    dof rx ry rz
    limits (-20.0 45.0)
           (-30.0 30.0)
           (-30.0 30.0)
  end
  begin
     id 12 
     name upperback
     direction -0.00423475 0.999974 -0.00583614   
     length 2.03619   
     axis 0 0 0   XYZ
    dof rx ry rz
    limits (-20.0 45.0)
           (-30.0 30.0)
           (-30.0 30.0)
  end
  begin
     id 13 
     name thorax
     direction 0.00289429 0.999728 0.0231573   
     length 2.03921   
     axis 0 0 0   XYZ
    dof rx ry rz
    limits (-20.0 45.0)
           (-30.0 30.0)
           (-30.0 30.0)
  end
  begin
     id 14 
     name lowerneck
     direction 0.0188995 0.987777 0.154721   
     length 1.78836   
     axis 0 0 0   XYZ
    dof rx ry rz
    limits (-20.0 45.0)
           (-30.0 30.0)
           (-30.0 30.0)
  end
  begin
     id 15 
     name upperneck
     direction -0.00612612 0.992995 -0.118   
     length 1.81789   
     axis 0 0 0   XYZ
    dof rx ry rz
    limits (-20.0 45.0)
           (-30.0 30.0)
           (-30.0 30.0)
  end
  begin
     id 16
     name head
     direction -0.00420226 0.998397 -0.0564482  
     length 1.82234  
     axis 0 0 0   XYZ
    dof rx ry rz
    limits (-20.0 45.0)
           (-30.0 30.0)
           (-30.0 30.0)
  end
  begin
     id 17 
     name lclavicle
     direction 0.916488 0.396539 0.0529676  
     length 3.51732  
     axis 0 0 0   XYZ
    dof ry rz
    limits (-20.0 10.0)
           (0.0 20.0)
  end
  begin
     id 18 
     name lhumerus
     direction 1 -4.4896e-011 8.36962e-028   
     length 5.45077   
     axis 180 -30 -90   XYZ
    dof rx ry rz
    limits (-60.0 90.0)
           (-90.0 90.0)
           (-90.0 90.0)
  end
  begin
     id 19
     name lradius
     direction 1 -4.48962e-011 3.01407e-027   
     length 3.05488   
     axis 180 -30 -90   XYZ
    dof rx
    limits (-10.0 170.0)
  end
  begin
     id 20
     name lwrist
     direction 1 -4.49002e-011 4.72961e-027   
     length 1.52744   
     axis -2.72261e-015 90 90   XYZ
    dof ry
    limits (-180.0 0.0)
 end
  begin
     id 21 
     name lhand
     direction 1 -4.4899e-011 9.45681e-027   
     length 0.638818   
     axis -6.0311e-015 90 90   XYZ
    dof rx rz
    limits (-90.0 90.0)
           (-45.0 45.0)
  end
  begin
     id 22 
     name lfingers
     direction 1 -4.48871e-011 1.88632e-026   
     length 0.515032   
     axis -1.20625e-014 90 90   XYZ
    dof rx
    limits (0.0 90.0)
  end
  begin
     id 23
     name lthumb
     direction 0.707107 -6.34964e-011 0.707107   
     length 0.739485   
     axis -90 45 6.32835e-014   XYZ
    dof rx rz
    limits (-45.0 45.0)
           (-45.0 45.0)
  end
  begin
     id 24 
     name rclavicle
     direction -0.949427 0.303202 0.0815894   
     length 3.76167  
     axis 0 0 0   XYZ 
    dof ry rz
    limits (-10.0 20.0)
           (-20.0 0.0)
  end
  begin
     id 25 
     name rhumerus
     direction -1 -4.48971e-011 -6.43969e-018  
     length 4.88702   
     axis 180 30 90   XYZ
    dof rx ry rz
    limits (-90.0 60.0)
           (-90.0 90.0)
           (-90.0 90.0)
  end
  begin
     id 26 
     name rradius
     direction -1 -4.48987e-011 5.46662e-027   
     length 3.22603   
     axis 180 30 90   XYZ
    dof rx
    limits (-10.0 170.0)
  end
  begin
     id 27 
     name rwrist
     direction -1 -4.48956e-011 4.72476e-027   
     length 1.61302   
     axis -2.72261e-015 -90 -90   XYZ
    dof ry
    limits (-180.0 0.0)
  end
  begin
     id 28
     name rhand
     direction -1 -4.4889e-011 9.43571e-027   
     length 0.716293   
     axis -6.0311e-015 -90 -90   XYZ
    dof rx rz
    limits (-90.0 90.0)
           (-45.0 45.0)
  end
  begin
     id 29
     name rfingers
     direction -1 -4.48887e-011 1.88701e-026   
     length 0.577494   
     axis -1.20625e-014 -90 -90   XYZ
    dof rx
    limits (0.0 90.0)
  end
  begin
     id 30
     name rthumb
     direction -0.707107 -6.34825e-011 0.707107   
     length 0.829169   
     axis -90 -45 -6.32835e-014   XYZ
    dof rx rz
    limits (-45.0 45.0)
           (-45.0 45.0)
  end
:hierarchy
  begin
    root lhipjoint rhipjoint lowerback
    lhipjoint lfemur
    lfemur ltibia
    ltibia lfoot
    lfoot ltoes
    rhipjoint rfemur
    rfemur rtibia
    rtibia rfoot
    rfoot rtoes
    lowerback upperback
    upperback thorax
    thorax lowerneck lclavicle rclavicle
    lowerneck upperneck
    upperneck head
    lclavicle lhumerus
    lhumerus lradius
    lradius lwrist
    lwrist lhand lthumb
    lhand lfingers
    rclavicle rhumerus
    rhumerus rradius
    rradius rwrist
    rwrist rhand rthumb
    rhand rfingers
  end

#!OML:ASF F:\VICON\USERDATA\INSTALL\rory3\rory3.ASF
:FULLY-SPECIFIED
:DEGREES
1802
root 1.57075 18.5846 0.411311 -237.156 87.8602 -252.617
lowerback -8.44486 -0.91953 0.0266683
upperback -3.0793 -1.11934 -0.827101
thorax 1.53085 -0.524668 -0.973536
lowerneck -19.7122 0.153522 2.6685
upperneck 19.3257 -0.619037 0.429337
head 9.34344 -0.0062198 -0.370321
rclavicle -1.00945e-016 1.11816e-014
rhumerus 23.4382 -14.0632 -111.169
rradius 48.0616
rwrist 141.306
rhand -13.6575 -3.45222
rfingers 7.12502
rthumb 12.4593 -33.0608
lclavicle -1.00945e-016 1.11816e-014
lhumerus 17.3342 -0.485604 96.121
lradius 62.9514
lwrist 72.4466
lhand -15.6184 29.5183
lfingers 7.12502
lthumb 10.5683 59.2326
rfemur -10.2021 -8.68117 16.6747
rtibia -2.46493e-014
rfoot -3.16144 7.42634
rtoes -7.0459
lfemur -18.8069 8.15225 -21.6295
ltibia 16.6803
lfoot -12.2974 -3.31822
ltoes -29.1581
1803
root 1.57051 18.5834 0.410717 -236.926 87.868 -252.409
lowerback -8.46679 -0.924151 0.0484017
upperback -3.09487 -1.12675 -0.820467
thorax 1.52646 -0.528205 -0.979832
lowerneck -19.6751 0.175375 2.66012
upperneck 19.4036 -0.58657 0.440612
head 9.36444 0.0112989 -0.360593
rclavicle -9.31958e-015 -1.05604e-014
rhumerus 23.2728 -13.967 -111.44
rradius 48.0527
rwrist 140.929
rhand -13.1348 -3.76565
rfingers 7.12502
rthumb 12.9633 -33.3429
lclavicle -9.31958e-015 -1.05604e-014
lhumerus 17.1832 -0.58209 96.3299
lradius 63.0646
lwrist 72.432
lhand -15.9549 29.5914
lfingers 7.12502
lthumb 10.2436 59.322
rfemur -10.2251 -8.68637 16.6821
rtibia -1.98785e-014
rfoot -3.11291 7.4069
rtoes -6.80446
lfemur -18.8291 8.14072 -21.6242
ltibia 16.6633
lfoot -12.281 -3.30483
ltoes -29.2486
1804
root 1.57043 18.5837 0.41192 -236.493 87.8472 -251.977
lowerback -8.45735 -0.929631 0.0208673
upperback -3.117 -1.13128 -0.819534
thorax 1.4989 -0.530159 -0.963427
lowerneck -19.6087 0.174698 2.65067
upperneck 19.4504 -0.589592 0.477609
head 9.36904 0.0147269 -0.346543
rclavicle 8.48717e-015 -4.91992e-015
rhumerus 23.0515 -13.85 -111.635
rradius 48.0136
rwrist 140.38
rhand -12.5229 -4.31426
rfingers 7.12502
rthumb 13.5531 -33.8532
lclavicle 8.48717e-015 -4.91992e-015
lhumerus 17.0143 -0.880343 96.3924
lradius 63.2428
lwrist 72.6104
lhand -16.1387 29.7874
lfingers 7.12502
lthumb 10.0663 59.5266
rfemur -10.2187 -8.70983 16.6799
rtibia 2.38542e-015
rfoot -3.10578 7.34817
rtoes -6.94654
lfemur -18.8267 8.19333 -21.645
ltibia 16.6275
lfoot -12.2332 -3.35897
ltoes -29.3182
1805
root 1.57109 18.5838 0.41335 -235.061 87.8111 -250.553
lowerback -8.43873 -0.940644 -0.0269191
upperback -3.15363 -1.1419 -0.793063
thorax 1.45217 -0.534871 -0.909582
lowerneck -19.5301 0.141768 2.57416
upperneck 19.4821 -0.623574 0.544178
head 9.366 0.00180382 -0.315408
rclavicle -2.90257e-015 1.61388e-014
rhumerus 22.8281 -13.7493 -111.751
rradius 47.9497
rwrist 139.889
rhand -12.1396 -4.89003
rfingers 7.12502
rthumb 13.9225 -34.4039
lclavicle -2.90257e-015 1.61388e-014
lhumerus 16.8614 -1.17313 96.5225
lradius 63.4085
lwrist 72.8206
lhand -16.5034 29.6355
lfingers 7.12502
lthumb 9.71451 59.3915
rfemur -10.2163 -8.77465 16.6834
rtibia -2.14687e-014
rfoot -3.06678 7.33441
rtoes -6.91583
lfemur -18.8263 8.09133 -21.6329
ltibia 16.5998
lfoot -12.2073 -3.31995
ltoes -29.1532
1806
root 1.57085 18.5834 0.413575 -233.793 87.7858 -249.287
lowerback -8.47437 -0.928994 -0.00443876
upperback -3.14749 -1.12748 -0.806783
thorax 1.47765 -0.527665 -0.935679
lowerneck -19.5103 0.106253 2.5351
upperneck 19.5519 -0.675852 0.615135
head 9.38679 -0.015506 -0.291458
rclavicle -4.59845e-015 -1.20513e-014
rhumerus 22.7455 -13.6617 -111.851
rradius 47.8372
rwrist 139.469
rhand -12.0409 -5.41949
rfingers 7.12502
rthumb 14.0176 -34.9268
lclavicle -4.59845e-015 -1.20513e-014
lhumerus 16.8059 -1.34486 96.7533
lradius 63.4919
lwrist 72.954
lhand -16.55 29.3791
lfingers 7.12502
lthumb 9.66949 59.1372
rfemur -10.2148 -8.82785 16.6957
rtibia 2.38542e-015
rfoot -3.09347 7.35223
rtoes -7.10072
lfemur -18.822 8.04963 -21.6231
ltibia 16.578
lfoot -12.1823 -3.3568
ltoes -28.9732
1807
root 1.57057 18.5827 0.412895 -233.528 87.7907 -249.055
lowerback -8.55715 -0.908441 0.0479955
upperback -3.15507 -1.10235 -0.835193
thorax 1.51427 -0.51492 -0.993385
lowerneck -19.448 0.0978089 2.5521
upperneck 19.6392 -0.700796 0.666701
head 9.40619 -0.0175547 -0.279644
rclavicle 7.67029e-015 -1.05853e-014
rhumerus 22.6027 -13.4488 -111.962
rradius 47.8944
rwrist 138.608
rhand -11.0472 -5.12073
rfingers 7.12502
rthumb 14.975 -34.5593
lclavicle 7.67029e-015 -1.05853e-014
lhumerus 16.6642 -1.64885 96.8119
lradius 63.7242
lwrist 73.3706
lhand -16.6419 28.8993
lfingers 7.12502
lthumb 9.58087 58.6615
rfemur -10.2524 -8.83562 16.7035
rtibia 7.95139e-015
rfoot -3.15779 7.40793
rtoes -6.97549
lfemur -18.8629 8.11717 -21.6402
ltibia 16.5602
lfoot -12.1656 -3.38596
ltoes -29.2111
1808
root 1.57045 18.5834 0.412937 -233.118 87.8254 -248.648
lowerback -8.60767 -0.89764 0.110449
upperback -3.13804 -1.0928 -0.84319
thorax 1.55848 -0.51036 -1.03686
lowerneck -19.4396 0.0986916 2.55154
upperneck 19.7247 -0.712118 0.726299
head 9.43494 -0.0138247 -0.260366
rclavicle -6.45429e-015 -7.85199e-015
rhumerus 22.4689 -13.2409 -112.122
rradius 47.9527
rwrist 137.71
rhand -9.22931 -4.38421
rfingers 7.12502
rthumb 16.7257 -33.6837
lclavicle -6.45429e-015 -7.85199e-015
lhumerus 16.5895 -1.89488 96.8738
lradius 63.8202
lwrist 73.7088
lhand -16.8849 28.578
lfingers 7.12502
lthumb 9.34643 58.3508
rfemur -10.2579 -8.82627 16.7465
rtibia 1.74931e-014
rfoot -3.2114 7.41903
rtoes -7.04597
lfemur -18.8662 8.0705 -21.5793
ltibia 16.5744
lfoot -12.1818 -3.37936
ltoes -29.0944
1809
root 1.57065 18.5841 0.413966 -233.027 87.7778 -248.574
lowerback -8.62915 -0.903759 0.0829765
upperback -3.13364 -1.09775 -0.868332
thorax 1.57481 -0.512645 -1.04825
lowerneck -19.4884 0.0985455 2.60327
upperneck 19.8054 -0.720108 0.685107
head 9.47165 -0.0166633 -0.284316
rclavicle -9.54477e-015 5.66536e-015
rhumerus 22.3879 -13.2822 -112.341
rradius 47.9687
rwrist 137.774
rhand -7.8659 -4.12779
rfingers 7.12502
rthumb 18.0379 -33.3114
lclavicle -9.54477e-015 5.66536e-015
lhumerus 16.5233 -2.05371 97.0409
lradius 63.7619
lwrist 73.7514
lhand -16.9851 28.2941
lfingers 7.12502
lthumb 9.24968 58.0712
rfemur -10.2746 -8.85849 16.7109
rtibia 1.35174e-014
rfoot -3.20725 7.37664
rtoes -7.06821
lfemur -18.9102 8.11521 -21.6379
ltibia 16.6066
lfoot -12.211 -3.45476
ltoes -29.0329
1810
root 1.57069 18.5841 0.415512 -232.533 87.7663 -248.081
lowerback -8.59702 -0.915727 0.0654733
upperback -3.15582 -1.11195 -0.868817
thorax 1.53427 -0.519615 -1.03949
lowerneck -19.5552 0.102653 2.64547
upperneck 19.9608 -0.728142 0.679836
head 9.53823 -0.0142889 -0.294256
rclavicle 1.99996e-014 1.16289e-014
rhumerus 22.2674 -13.2628 -112.541
rradius 47.9628
rwrist 137.355
rhand -8.04788 -4.07063
rfingers 7.12502
rthumb 17.8628 -33.2703
lclavicle 1.99996e-014 1.16289e-014
lhumerus 16.3741 -2.20694 97.1581
lradius 63.832
lwrist 73.8993
lhand -16.9936 27.9976
lfingers 7.12502
lthumb 9.2415 57.7751
rfemur -10.2725 -8.87853 16.7222
rtibia -1.59028e-015
rfoot -3.24829 7.37654
rtoes -7.67289
lfemur -18.9307 8.15732 -21.6469
ltibia 16.6291
lfoot -12.2388 -3.51914
ltoes -28.9974
1811
root 1.5702 18.5836 0.415783 -232.645 87.7967 -248.175
lowerback -8.57338 -0.901272 0.0993194
upperback -3.16393 -1.09554 -0.8719
thorax 1.51242 -0.511657 -1.0596
lowerneck -19.6234 0.0874768 2.63507
upperneck 20.1566 -0.758332 0.723211
head 9.61968 -0.0194846 -0.281626
rclavicle 3.78933e-016 9.36773e-015
rhumerus 22.0998 -13.2333 -112.809
rradius 48.0054
rwrist 136.748
rhand -8.84019 -4.24831
rfingers 7.12502
rthumb 17.1003 -33.5157
lclavicle 3.78933e-016 9.36773e-015
lhumerus 16.2249 -2.41096 97.2498
lradius 63.9602
lwrist 74.1621
lhand -17.3011 27.4367
lfingers 7.12502
lthumb 8.94481 57.2271
rfemur -10.2552 -8.85654 16.7404
rtibia -2.46493e-014
rfoot -3.24615 7.41024
rtoes -7.66059
lfemur -18.9113 8.20661 -21.6225
ltibia 16.6369
lfoot -12.1984 -3.52556
ltoes -29.0489
